<svg width="134" height="134" viewBox="0 0 134 134" fill="none" xmlns="http://www.w3.org/2000/svg">
<path d="M66.9998 11.1667C59.6677 11.1667 52.4074 12.6108 45.6333 15.4167C38.8593 18.2226 32.7043 22.3353 27.5197 27.5199C17.0489 37.9907 11.1665 52.1921 11.1665 67C11.1665 81.8079 17.0489 96.0093 27.5197 106.48C32.7043 111.665 38.8593 115.777 45.6333 118.583C52.4074 121.389 59.6677 122.833 66.9998 122.833C81.8078 122.833 96.0092 116.951 106.48 106.48C116.951 96.0093 122.833 81.8079 122.833 67C122.833 60.5233 121.661 54.1025 119.427 48.0725L110.494 57.0058C111.276 60.3 111.667 63.65 111.667 67C111.667 78.8463 106.961 90.2075 98.5839 98.5841C90.2073 106.961 78.8462 111.667 66.9998 111.667C55.1535 111.667 43.7924 106.961 35.4157 98.5841C27.0391 90.2075 22.3332 78.8463 22.3332 67C22.3332 55.1537 27.0391 43.7925 35.4157 35.4159C43.7924 27.0393 55.1535 22.3333 66.9998 22.3333C70.3498 22.3333 73.6998 22.7242 76.994 23.5058L85.9832 14.5167C79.8973 12.3392 73.4765 11.1667 66.9998 11.1667ZM106.083 11.1667L83.7498 33.5V41.875L69.5123 56.1125C68.6748 55.8333 67.8373 55.8333 66.9998 55.8333C64.0383 55.8333 61.198 57.0098 59.1038 59.104C57.0097 61.1981 55.8332 64.0384 55.8332 67C55.8332 69.9616 57.0097 72.8019 59.1038 74.896C61.198 76.9902 64.0383 78.1667 66.9998 78.1667C69.9614 78.1667 72.8017 76.9902 74.8959 74.896C76.99 72.8019 78.1665 69.9616 78.1665 67C78.1665 66.1625 78.1665 65.325 77.8873 64.4875L92.1248 50.25H100.5L122.833 27.9167H106.083V11.1667ZM66.9998 33.5C58.1151 33.5 49.5942 37.0295 43.3118 43.3119C37.0293 49.5944 33.4998 58.1152 33.4998 67C33.4998 75.8848 37.0293 84.4056 43.3118 90.6881C49.5942 96.9706 58.1151 100.5 66.9998 100.5C75.8846 100.5 84.4054 96.9706 90.6879 90.6881C96.9704 84.4056 100.5 75.8848 100.5 67H89.3332C89.3332 72.9232 86.9802 78.6037 82.7919 82.7921C78.6036 86.9804 72.923 89.3333 66.9998 89.3333C61.0767 89.3333 55.3961 86.9804 51.2078 82.7921C47.0195 78.6037 44.6665 72.9232 44.6665 67C44.6665 61.0768 47.0195 55.3963 51.2078 51.2079C55.3961 47.0196 61.0767 44.6667 66.9998 44.6667V33.5Z" fill="#182018"/>
</svg>
