<?xml version="1.0" encoding="UTF-8" standalone="no"?>
<!-- Created with Inkscape (http://www.inkscape.org/) -->

<svg
	version="1.1"
	id="svg1"
	width="67.991699"
	height="69.650909"
	viewBox="0 0 67.991701 69.650907"
	xml:space="preserve"
	xmlns="http://www.w3.org/2000/svg"
	xmlns:svg="http://www.w3.org/2000/svg"
>
	<defs id="defs1" />
	<style>
		#path1 {
			fill: #22241d;
		}

		#path2 {
			fill:#23241c;
		}

		@media(prefers-color-scheme: dark) {
			#path1 {
				fill: #72746d;
			}

			#path2 {
				fill:#73746c;
			}
		}
	</style>
	<path
		style="display:inline;fill-opacity:0.698039"
		d="m 25.324415,69.636748 c -1.376286,0.0603 -2.506548,-0.0733 -3.176495,-0.37542 -0.916641,-0.41342 -1.037229,-0.61322 -1.016639,-1.6845 0.01285,-0.6685 0.129274,-1.95775 0.258724,-2.865 0.235363,-1.64955 0.235363,-1.64955 -0.773566,-0.88 -0.554911,0.42325 -1.400349,0.76955 -1.878751,0.76955 -0.478402,0 -1.795903,0.3232 -2.92778,0.71823 -1.698853,0.59291 -2.168217,0.64938 -2.689827,0.32363 -0.550209,-0.34361 -0.900071,-0.20712 -2.707174,1.05613 -1.1414177,0.79791 -2.7334897,1.67501 -3.5379367,1.94911 -0.804447,0.2741 -1.809528,0.4113 -2.233513,0.30489 -0.423984,-0.10641 -0.863156,-0.48421 -0.975937,-0.83955 -0.135701,-0.42756 0.170402,-1.32022 0.905033,-2.63926 0.610549,-1.09625 1.326114,-2.5146 1.590144,-3.15188 l 0.480056,-1.15871 -1.326417,0.73226 c -0.729529,0.40274 -1.945496,0.89562 -2.702149,1.09527 -0.756653,0.19966 -1.65665296,0.27386 -1.99999996,0.16489 -0.419589,-0.13318 -0.620226,-0.47959 -0.6119410061,-1.05657 0.007600006,-0.53002 0.7317390061,-1.83784 1.8927519661,-3.41844 1.879297,-2.55846 1.879913,-2.56005 1.027673,-2.64775 -0.469013,-0.0483 -1.176751,-0.159 -1.572751,-0.24609 -0.57584696,-0.12665 -0.71999996,-0.37798 -0.71999996,-1.25531 0,-0.81971 0.40040696,-1.62597 1.58423796,-3.19003 0.871332,-1.15118 1.95639,-2.70681 2.411242,-3.45694 0.454851,-0.75014 1.073944,-1.71774 1.375761,-2.15024 0.301818,-0.4325 0.371735,-0.67784 0.155372,-0.5452 -0.216362,0.13264 -0.684362,0.0854 -1.04,-0.1049 -0.413294,-0.22119 -0.646613,-0.6705 -0.646613,-1.2452 0,-0.50641 0.292893,-1.16421 0.670553,-1.50599 0.670552,-0.60684 0.670552,-0.60684 -0.08,-0.78271 -0.475897,-0.11152 -0.790094,-0.45074 -0.858606,-0.92699 -0.08291,-0.57634 0.436467,-1.2993 2.231991,-3.10688 2.137112,-2.15147 2.267822,-2.35577 1.507235,-2.35577 -0.458044,0 -1.017813,-0.22292 -1.243929,-0.49537 -0.337058,-0.40613 -0.322173,-0.67996 0.08263,-1.52 0.271562,-0.56355 1.060798,-1.67263 1.753858,-2.46463 0.69306,-0.792 1.7251627,-2.124 2.2935627,-2.96 l 1.033453,-1.52 h -1.071373 c -0.589255,0 -1.2441727,-0.1728 -1.4553727,-0.384 -0.2112,-0.2112 -0.384,-0.69988 -0.384,-1.08596 0,-0.49546 0.800103,-1.34741 2.7197657,-2.896 1.495871,-1.20672 2.719871,-2.30204 2.72,-2.43404 1.29e-4,-0.132 -0.265448,-0.24 -0.59017,-0.24 -0.324722,0 -0.828722,-0.26334 -1.12,-0.5852 -0.29128,-0.32186 -0.529598,-0.81156 -0.529598,-1.08822 0,-0.27666 1.126371,-1.31402 2.503048,-2.30523 2.253005,-1.62218 2.489806,-1.89243 2.370495,-2.70535 -0.09951,-0.67803 0.06659,-1.05978 0.666459,-1.53163 0.768037,-0.60414 0.775383,-0.64326 0.189505,-1.0091496 -0.36184,-0.22597 -0.609507,-0.74204 -0.609507,-1.27003 0,-0.70868 0.562039,-1.40377 2.766192,-3.42104 1.809764,-1.65631 2.979519,-3.01391 3.383178,-3.92644 0.558955,-1.26361003 0.710891,-1.38553003 1.615373,-1.29626003 0.819459,0.0809 1.045188,0.28048 1.259536,1.11372003 0.177552,0.69019 1.23343,1.92768 3.298435,3.86575 2.361293,2.21616 3.037286,3.04012 3.037286,3.70213 0,0.495 -0.258874,1.0132 -0.618296,1.23766 -0.600445,0.3749796 -0.595826,0.4069496 0.16,1.1074296 0.428063,0.39672 0.778296,0.93568 0.778296,1.19769 0,0.26202 -0.156323,0.57301 -0.347385,0.6911 -0.214573,0.13261 -0.04762,0.4151 0.436694,0.73888 0.431244,0.2883 1.591471,1.08186 2.578283,1.76345 0.986811,0.6816 1.882196,1.51651 1.989743,1.85536 0.107547,0.33885 0.02153,0.82576 -0.191141,1.08201 -0.212674,0.25626 -0.822613,0.57889 -1.35542,0.71695 -0.968738,0.25103 -0.968738,0.25103 1.960244,2.62186 2.011645,1.62831 2.928982,2.58158 2.928982,3.0437 0,0.37007 -0.1728,0.84566 -0.384,1.05686 -0.2112,0.2112 -0.864266,0.384 -1.451259,0.384 -0.934429,0 -1.028315,0.0728 -0.754355,0.58467 0.172097,0.32156 1.333495,1.86956 2.580884,3.44 1.832128,2.3066 2.250756,3.03982 2.178355,3.81533 -0.07426,0.79545 -0.248418,0.97812 -1.016053,1.06574 -0.920689,0.10508 -0.91207,0.12018 1.391344,2.43908 1.54428,1.55465 2.279668,2.5312 2.203594,2.92622 -0.0628,0.32609 -0.437191,0.75392 -0.831983,0.95075 -0.716302,0.35711 -0.716463,0.35908 -0.07717,0.93763 0.352351,0.31888 0.640638,0.98439 0.640638,1.47892 0,0.5747 -0.233319,1.02401 -0.646613,1.2452 -0.355638,0.19033 -0.823638,0.23697 -1.04,0.10363 -0.216363,-0.13333 -0.141387,0.14801 0.166613,0.62521 0.308,0.47719 0.805276,1.26362 1.105057,1.74762 0.299781,0.484 1.379781,2.04489 2.4,3.46864 1.092732,1.52495 1.854943,2.92237 1.854943,3.40082 0,0.4467 -0.181826,0.96308 -0.404058,1.14751 -0.222231,0.18444 -0.951208,0.38207 -1.619947,0.43919 l -1.21589,0.10384 1.939948,2.64448 c 1.066971,1.45446 1.939947,2.91283 1.939947,3.24082 0,0.32798 -0.219399,0.77842 -0.487552,1.00097 -0.396028,0.32867 -0.877179,0.29916 -2.563082,-0.15719 -1.14154,-0.309 -2.443525,-0.85128 -2.893299,-1.20508 -0.817771,-0.64326 -0.817771,-0.64326 -0.300997,0.59637 0.284226,0.6818 0.949957,2.00824 1.479403,2.94765 0.569255,1.01005 0.922357,2.05378 0.864078,2.55411 -0.06603,0.56692 -0.362516,0.93698 -0.898551,1.12155 -0.572049,0.19697 -1.301491,0.0854 -2.56,-0.39158 -0.968,-0.36686 -2.515277,-1.24141 -3.438394,-1.94344 -1.481639,-1.12677 -1.770359,-1.2345 -2.462885,-0.91896 -0.618168,0.28165 -1.110382,0.23941 -2.321606,-0.19922 -0.845413,-0.30616 -2.113115,-0.62914 -2.817115,-0.71772 -0.704,-0.0886 -1.763678,-0.52498 -2.354839,-0.96977 -1.074839,-0.80871 -1.074839,-0.80871 -0.892906,0.11415 0.100063,0.50757 0.272141,1.71732 0.382397,2.68832 0.175696,1.54733 0.115078,1.84274 -0.490598,2.39087 -0.510188,0.46171 -1.250261,0.64991 -2.827559,0.71904 z"
		id="path1" />
	<path
		style="display:inline;fill-opacity:1;stroke-width:0.661052"
		d="m 51.740746,69.641548 c -0.909796,0.03986 -1.656958,-0.04846 -2.099828,-0.248172 -0.605947,-0.273292 -0.685661,-0.40537 -0.672051,-1.113542 0.0085,-0.441913 0.08546,-1.294173 0.17103,-1.893913 0.155588,-1.090438 0.155588,-1.090438 -0.511367,-0.581725 -0.366824,0.27979 -0.925703,0.508712 -1.241952,0.508712 -0.316247,0 -1.187184,0.213652 -1.935413,0.474788 -1.12303,0.391944 -1.433304,0.429273 -1.778115,0.213936 -0.363717,-0.227144 -0.594993,-0.136917 -1.789582,0.698156 -0.754535,0.52746 -1.806978,1.107268 -2.338759,1.288462 -0.531781,0.181195 -1.196191,0.271891 -1.476467,0.201548 -0.280276,-0.07035 -0.570591,-0.320087 -0.645145,-0.554985 -0.08971,-0.28264 0.112644,-0.872734 0.598274,-1.744688 0.403604,-0.724678 0.87663,-1.66228 1.051167,-2.083555 l 0.317342,-0.765967 -0.87683,0.484061 c -0.482257,0.266232 -1.286073,0.592051 -1.786261,0.72403 -0.500186,0.131986 -1.095133,0.181036 -1.322103,0.109001 -0.27737,-0.08804 -0.410002,-0.317034 -0.404525,-0.698448 0.005,-0.35037 0.483718,-1.214907 1.251208,-2.259765 1.242312,-1.691274 1.242719,-1.692326 0.679344,-1.7503 -0.310042,-0.03193 -0.777893,-0.105107 -1.039669,-0.162678 -0.380665,-0.08372 -0.475957,-0.249865 -0.475957,-0.829825 0,-0.54187 0.264689,-1.07485 1.047263,-2.108775 0.575995,-0.760989 1.293274,-1.789341 1.593955,-2.285215 0.30068,-0.495882 0.709933,-1.135516 0.909449,-1.421421 0.199518,-0.285904 0.245736,-0.448087 0.10271,-0.360405 -0.143027,0.08768 -0.452399,0.05645 -0.687494,-0.06934 -0.273209,-0.146218 -0.427445,-0.443235 -0.427445,-0.823142 0,-0.334763 0.193617,-0.769603 0.44327,-0.995537 0.44327,-0.401153 0.44327,-0.401153 -0.05289,-0.517412 -0.314593,-0.07372 -0.522294,-0.297963 -0.567584,-0.612788 -0.05481,-0.38099 0.288527,-0.858905 1.475461,-2.053809 1.412743,-1.422233 1.499148,-1.557285 0.996361,-1.557285 -0.30279,0 -0.672827,-0.147362 -0.822301,-0.327465 -0.222813,-0.268474 -0.212973,-0.449489 0.05462,-1.004799 0.179517,-0.372536 0.701243,-1.105695 1.159391,-1.629248 0.458149,-0.523553 1.140422,-1.404074 1.516163,-1.956713 l 0.683167,-1.004798 h -0.708234 c -0.389528,0 -0.822462,-0.11423 -0.962076,-0.253845 -0.139614,-0.139613 -0.253844,-0.462656 -0.253844,-0.717875 0,-0.327525 0.52891,-0.890708 1.797906,-1.914406 0.988848,-0.797704 1.797974,-1.521768 1.79806,-1.609026 8.5e-5,-0.08726 -0.175475,-0.158652 -0.390132,-0.158652 -0.214659,0 -0.547829,-0.174082 -0.740379,-0.386848 -0.19255,-0.212766 -0.350091,-0.536483 -0.350091,-0.719369 0,-0.182888 0.744589,-0.868636 1.654644,-1.523877 1.489353,-1.072345 1.64589,-1.250994 1.567019,-1.788376 -0.06578,-0.448213 0.04402,-0.70057 0.440565,-1.012486 0.507712,-0.399369 0.512568,-0.425228 0.125272,-0.667101 -0.239195,-0.149377 -0.402916,-0.490527 -0.402916,-0.839555 0,-0.468474 0.371538,-0.927965 1.828596,-2.261484 1.196348,-1.094907 1.969616,-1.992351 2.236456,-2.595581 0.369498,-0.835311 0.469936,-0.915907 1.067845,-0.856894 0.541705,0.05348 0.690923,0.185412 0.832619,0.736226 0.117371,0.456252 0.815361,1.274296 2.180435,2.555461 1.560937,1.464996 2.007803,2.009676 2.007803,2.447299 0,0.32722 -0.171129,0.669778 -0.408725,0.818157 -0.396925,0.247882 -0.393872,0.269015 0.105768,0.732068 0.282972,0.262253 0.514494,0.618533 0.514494,0.791735 0,0.17321 -0.103338,0.378789 -0.229639,0.456854 -0.141844,0.08767 -0.03148,0.274402 0.288677,0.488437 0.285074,0.190581 1.052045,0.715165 1.704379,1.165732 0.652333,0.450573 1.244228,1.002491 1.315322,1.226489 0.0711,0.223997 0.01423,0.54587 -0.126354,0.715264 -0.140588,0.169401 -0.54379,0.382677 -0.896003,0.473941 -0.640385,0.165944 -0.640385,0.165944 1.295823,1.733185 1.329801,1.076398 1.936209,1.706559 1.936209,2.012043 0,0.244635 -0.11423,0.559026 -0.253844,0.698639 -0.139614,0.139615 -0.571324,0.253845 -0.959357,0.253845 -0.617706,0 -0.67977,0.04812 -0.498668,0.386496 0.113765,0.212568 0.881509,1.235876 1.706098,2.274018 1.211131,1.524782 1.487866,2.009479 1.440005,2.52213 -0.04909,0.525834 -0.164217,0.646589 -0.671663,0.70451 -0.608623,0.06946 -0.602926,0.07944 0.91975,1.612358 1.020849,1.027704 1.506979,1.673254 1.45669,1.934382 -0.04152,0.215563 -0.289006,0.498381 -0.549985,0.628495 -0.473512,0.236069 -0.473618,0.237371 -0.05101,0.619823 0.232921,0.210796 0.423494,0.650732 0.423494,0.977642 0,0.379907 -0.154236,0.676924 -0.427445,0.823142 -0.235094,0.125818 -0.544467,0.156649 -0.687493,0.06851 -0.143028,-0.08814 -0.09347,0.09784 0.110139,0.413295 0.203604,0.315448 0.53233,0.835319 0.7305,1.155268 0.198171,0.319948 0.912107,1.351778 1.586525,2.29295 0.722351,1.008071 1.226213,1.931838 1.226213,2.248118 0,0.295292 -0.120197,0.636645 -0.267104,0.758563 -0.146906,0.121925 -0.628797,0.252569 -1.070869,0.290327 l -0.803765,0.06865 1.282405,1.748138 c 0.705323,0.961473 1.282405,1.925532 1.282405,2.14235 0,0.216811 -0.145034,0.514576 -0.322296,0.661692 -0.261795,0.217269 -0.579861,0.197761 -1.69433,-0.10391 -0.754617,-0.204265 -1.615296,-0.56274 -1.91262,-0.79662 -0.540589,-0.425228 -0.540589,-0.425228 -0.198975,0.394231 0.187888,0.450705 0.627971,1.327551 0.977962,1.948549 0.376307,0.667695 0.609726,1.357655 0.5712,1.688399 -0.04365,0.374763 -0.239641,0.619392 -0.593988,0.741403 -0.378155,0.130206 -0.860353,0.05645 -1.692292,-0.258855 -0.639899,-0.242513 -1.662729,-0.820637 -2.272958,-1.284715 -0.979439,-0.744852 -1.170298,-0.816067 -1.628093,-0.607479 -0.408641,0.186185 -0.73402,0.158262 -1.534702,-0.131696 -0.558862,-0.202387 -1.396879,-0.415893 -1.862259,-0.474449 -0.46538,-0.05857 -1.165882,-0.34704 -1.55667,-0.641068 -0.710524,-0.534599 -0.710524,-0.534599 -0.590257,0.07546 0.06615,0.33553 0.179899,1.135237 0.252784,1.777118 0.116144,1.022865 0.07607,1.218147 -0.32431,1.580489 -0.337261,0.305214 -0.826488,0.429624 -1.869164,0.475322 z"
		id="path2"
	/>
</svg>
