<svg width="37" height="36" viewBox="0 0 37 36" fill="none" xmlns="http://www.w3.org/2000/svg">
<path d="M35.1039 8.01904V27.499C35.1039 31.3238 32.0034 34.4243 28.1787 34.4243H8.69866C4.87391 34.4243 1.77337 31.3238 1.77337 27.499V8.01904C1.77337 4.19428 4.87391 1.09375 8.69866 1.09375H28.1787C32.0034 1.09375 35.1039 4.19428 35.1039 8.01904ZM14.9081 27.2028C23.129 30.0393 30.7189 22.4494 27.8825 14.2284C26.9267 11.4577 24.7402 9.27097 21.9695 8.31524C13.7483 5.47876 6.15839 13.0687 8.99486 21.2898C9.95059 24.0606 12.1371 26.2471 14.9081 27.2028ZM6.87325 7.68052C7.00406 8.36549 7.57083 8.76401 8.15712 8.76401C8.51394 8.76401 8.87768 8.61673 9.15619 8.29713C9.1808 8.26886 9.20379 8.23854 9.22413 8.20701C9.51158 7.76759 9.52053 7.24558 9.27621 6.82224C9.10329 6.52258 8.82418 6.30857 8.48994 6.21906C8.15611 6.12914 7.80701 6.17532 7.50776 6.34844C7.08421 6.59256 6.83114 7.04927 6.86003 7.57291C6.86206 7.60871 6.86633 7.64513 6.87325 7.68052Z" fill="white"/>
<path d="M18.4386 9.66187C22.9036 9.66187 26.5357 13.294 26.5357 17.7589C26.5357 22.2239 22.9036 25.856 18.4386 25.856C13.9737 25.856 10.3416 22.2239 10.3416 17.7589C10.3416 13.294 13.9737 9.66187 18.4386 9.66187Z" fill="white"/>
</svg>
