<?xml version="1.0" encoding="UTF-8" standalone="no"?>
<!-- Created with Inkscape (http://www.inkscape.org/) -->

<svg
   width="8.8187027mm"
   height="8.8187075mm"
   viewBox="0 0 8.8187027 8.8187074"
   version="1.1"
   id="svg5"
   xmlns="http://www.w3.org/2000/svg"
   xmlns:svg="http://www.w3.org/2000/svg">
  <defs
     id="defs2" />
  <g
     id="layer1"
     transform="translate(-99.04132,-103.36467)">
    <g
       style="fill:none"
       id="g18"
       transform="matrix(0.26458333,0,0,0.26458333,96.684457,105.54469)">
      <g
         style="fill:#663333;fill-opacity:1"
         id="g967"
         transform="translate(7.1344586,-9.3332145)">
        <path
           d="M 35.1039,8.01904 V 27.499 c 0,3.8248 -3.1005,6.9253 -6.9252,6.9253 H 8.69866 c -3.82475,0 -6.92529,-3.1005 -6.92529,-6.9253 V 8.01904 c 0,-3.82476 3.10054,-6.92529 6.92529,-6.92529 H 28.1787 c 3.8247,0 6.9252,3.10053 6.9252,6.92529 z M 14.9081,27.2028 C 23.129,30.0393 30.7189,22.4494 27.8825,14.2284 26.9267,11.4577 24.7402,9.27097 21.9695,8.31524 13.7483,5.47876 6.15839,13.0687 8.99486,21.2898 c 0.95573,2.7708 3.14224,4.9573 5.91324,5.913 z M 6.87325,7.68052 c 0.13081,0.68497 0.69758,1.08349 1.28387,1.08349 0.35682,0 0.72056,-0.14728 0.99907,-0.46688 C 9.1808,8.26886 9.20379,8.23854 9.22413,8.20701 9.51158,7.76759 9.52053,7.24558 9.27621,6.82224 9.10329,6.52258 8.82418,6.30857 8.48994,6.21906 8.15611,6.12914 7.80701,6.17532 7.50776,6.34844 7.08421,6.59256 6.83114,7.04927 6.86003,7.57291 c 0.00203,0.0358 0.0063,0.07222 0.01322,0.10761 z"
           fill="#ffffff"
           id="path955"
           style="fill:#663333;fill-opacity:1" />
        <path
           d="m 18.4386,9.66187 c 4.465,0 8.0971,3.63213 8.0971,8.09703 0,4.465 -3.6321,8.0971 -8.0971,8.0971 -4.4649,0 -8.097,-3.6321 -8.097,-8.0971 0,-4.4649 3.6321,-8.09703 8.097,-8.09703 z"
           fill="#ffffff"
           id="path957"
           style="fill:#663333;fill-opacity:1" />
      </g>
    </g>
  </g>
</svg>
