<?xml version="1.0" encoding="UTF-8" standalone="no"?>
<svg
   width="36"
   height="44"
   viewBox="0 0 36 44"
   fill="none"
   version="1.1"
   id="svg12"
   xmlns="http://www.w3.org/2000/svg"
   xmlns:svg="http://www.w3.org/2000/svg">
  <defs
     id="defs16" />
  <g
     style="mix-blend-mode:multiply"
     id="g10"
     transform="translate(-2,-2)">
    <path
       id="path2"
       style="fill:#565656;fill-opacity:1"
       d="M 20,2 C 15.2261,2 10.647104,3.8958244 7.2714844,7.2714844 3.8958244,10.647104 2,15.2261 2,20 2,34 20,46 20,46 20,46 38,34 38,20 38,15.2261 36.104216,10.647104 32.728516,7.2714844 29.352916,3.8958244 24.7739,2 20,2 Z m 0,10.5 c 4.124361,0 7.5,3.375639 7.5,7.5 0,4.124361 -3.375639,7.5 -7.5,7.5 -4.124361,0 -7.5,-3.375639 -7.5,-7.5 0,-4.124361 3.375639,-7.5 7.5,-7.5 z m 0,3 c -2.503033,0 -4.5,1.996967 -4.5,4.5 0,2.503033 1.996967,4.5 4.5,4.5 2.503033,0 4.5,-1.996967 4.5,-4.5 0,-2.503033 -1.996967,-4.5 -4.5,-4.5 z" />
  </g>
</svg>
