<svg width="29" height="29" viewBox="0 0 29 29" fill="none" xmlns="http://www.w3.org/2000/svg">
<path d="M17.5002 6.48619C18.8411 7.32691 19.7814 8.74959 19.9526 10.401C20.4994 10.6565 21.1063 10.8034 21.7498 10.8034C24.099 10.8034 26.003 8.89942 26.003 6.55061C26.003 4.20144 24.099 2.29742 21.7498 2.29742C19.4231 2.29815 17.5357 4.16815 17.5002 6.48619ZM14.7139 15.1945C17.0631 15.1945 18.9671 13.2901 18.9671 10.9413C18.9671 8.59252 17.0627 6.6885 14.7139 6.6885C12.3651 6.6885 10.46 8.59288 10.46 10.9417C10.46 13.2905 12.3651 15.1945 14.7139 15.1945ZM16.518 15.4844H12.909C9.90625 15.4844 7.46335 17.9277 7.46335 20.9305V25.344L7.47457 25.4131L7.77857 25.5083C10.6442 26.4037 13.1338 26.7022 15.1829 26.7022C19.1853 26.7022 21.5052 25.5611 21.6481 25.4884L21.9322 25.3447H21.9626V20.9305C21.9637 17.9277 19.5208 15.4844 16.518 15.4844ZM23.5547 11.0937H19.9736C19.9348 12.5265 19.3232 13.8167 18.3558 14.7447C21.0249 15.5383 22.9778 18.0135 22.9778 20.937V22.297C26.5137 22.1675 28.5512 21.1653 28.6855 21.098L28.9696 20.954H29V16.539C29 13.5366 26.5571 11.0937 23.5547 11.0937ZM7.2509 10.8042C8.08294 10.8042 8.85707 10.5613 9.51285 10.1477C9.72132 8.78795 10.4502 7.5998 11.4914 6.79056C11.4958 6.71094 11.5034 6.63204 11.5034 6.5517C11.5034 4.20253 9.59899 2.29851 7.2509 2.29851C4.90137 2.29851 2.99772 4.20253 2.99772 6.5517C2.99772 8.89978 4.90137 10.8042 7.2509 10.8042ZM11.0705 14.7447C10.1078 13.8214 9.49838 12.5381 9.45386 11.114C9.32104 11.1042 9.18967 11.0937 9.05431 11.0937H5.44569C2.44291 11.0937 0 13.5366 0 16.539V20.9533L0.0112193 21.0213L0.315225 21.1172C2.61409 21.8349 4.66577 22.1657 6.44782 22.2699V20.937C6.44855 18.0135 8.4007 15.5391 11.0705 14.7447Z" fill="#7C9E85"/>
</svg>
