<svg width="15" height="21" viewBox="0 0 15 21" fill="none" xmlns="http://www.w3.org/2000/svg">
<g clip-path="url(#clip0_769_587)">
<path d="M7.71392 9.19451C10.0631 9.19451 11.9671 7.29013 11.9671 4.94132C11.9671 2.59251 10.0627 0.688492 7.71392 0.688492C5.36511 0.688492 3.46001 2.59287 3.46001 4.94168C3.46001 7.29049 5.36511 9.19451 7.71392 9.19451ZM9.51805 9.4844H5.90907C2.90628 9.4844 0.463379 11.9277 0.463379 14.9305V19.344L0.474598 19.4131L0.778605 19.5083C3.64422 20.4036 6.13382 20.7022 8.18296 20.7022C12.1853 20.7022 14.5052 19.5611 14.6482 19.4884L14.9323 19.3447H14.9627V14.9305C14.9637 11.9277 12.5208 9.4844 9.51805 9.4844Z" fill="#7C9E85"/>
</g>
<defs>
<clipPath id="clip0_769_587">
<rect width="15" height="21" fill="white"/>
</clipPath>
</defs>
</svg>
