<svg width="40" height="40" viewBox="0 0 40 40" fill="none" xmlns="http://www.w3.org/2000/svg">
<path d="M40.0001 29.84V35.84C40.0024 36.397 39.8883 36.9483 39.6651 37.4587C39.442 37.9691 39.1147 38.4272 38.7043 38.8037C38.2938 39.1803 37.8093 39.467 37.2816 39.6454C36.754 39.8239 36.1949 39.8901 35.6401 39.84C29.4858 39.1713 23.5741 37.0683 18.3801 33.7C13.5478 30.6293 9.45078 26.5324 6.38011 21.7C3.00007 16.4824 0.896596 10.542 0.24011 4.36001C0.190131 3.80694 0.25586 3.24953 0.433111 2.72326C0.610362 2.19699 0.895252 1.71339 1.26964 1.30325C1.64403 0.893117 2.09972 0.56543 2.60769 0.341055C3.11566 0.11668 3.66479 0.000533758 4.22011 1.07992e-05H10.2201C11.1907 -0.00954209 12.1317 0.334168 12.8676 0.967076C13.6036 1.59998 14.0843 2.4789 14.2201 3.44001C14.4734 5.36014 14.943 7.24546 15.6201 9.06001C15.8892 9.77586 15.9474 10.5538 15.7879 11.3018C15.6284 12.0497 15.2578 12.7362 14.7201 13.28L12.1801 15.82C15.0272 20.8271 19.173 24.9729 24.1801 27.82L26.7201 25.28C27.2639 24.7423 27.9504 24.3717 28.6983 24.2122C29.4463 24.0527 30.2243 24.1109 30.9401 24.38C32.7547 25.0571 34.64 25.5268 36.5601 25.78C37.5316 25.9171 38.4189 26.4064 39.0532 27.155C39.6874 27.9036 40.0244 28.8592 40.0001 29.84Z" fill="#565656"/>
</svg>
