<svg width="24" height="24" viewBox="0 0 24 24" fill="none" xmlns="http://www.w3.org/2000/svg">
<path d="M6.5998 13.9528L7.31493 14.978C7.65008 14.7443 7.8498 14.3614 7.8498 13.9528H6.5998ZM11.3998 13.9528H10.1498C10.1498 14.3084 10.3012 14.6471 10.5662 14.8842L11.3998 13.9528ZM8.9998 16.15C8.30945 16.15 7.7498 16.7096 7.7498 17.4C7.7498 18.0904 8.30945 18.65 8.9998 18.65V16.15ZM9.05605 18.65C9.74641 18.65 10.3061 18.0904 10.3061 17.4C10.3061 16.7096 9.74641 16.15 9.05605 16.15V18.65ZM11.9498 17.4C11.9498 19.0292 10.629 20.35 8.9998 20.35V22.85C12.0098 22.85 14.4498 20.4099 14.4498 17.4H11.9498ZM8.9998 20.35C7.37056 20.35 6.0498 19.0292 6.0498 17.4H3.5498C3.5498 20.4099 5.98985 22.85 8.9998 22.85V20.35ZM6.0498 17.4C6.0498 16.3986 6.54762 15.5133 7.31493 14.978L5.88468 12.9276C4.47581 13.9103 3.5498 15.5469 3.5498 17.4H6.0498ZM10.5662 14.8842C10.8898 15.1739 11.2544 15.6157 11.5321 16.1103C11.8164 16.6166 11.9498 17.0709 11.9498 17.4H14.4498C14.4498 16.4852 14.1129 15.6004 13.712 14.8864C13.3045 14.1606 12.769 13.5008 12.2334 13.0214L10.5662 14.8842ZM10.1498 4.79999V13.9528H12.6498V4.79999H10.1498ZM7.8498 13.9528V4.79843H5.3498V13.9528H7.8498ZM8.9998 3.64999C9.63493 3.64999 10.1498 4.16487 10.1498 4.79999H12.6498C12.6498 2.78416 11.0156 1.14999 8.9998 1.14999V3.64999ZM8.9998 1.14999C6.98503 1.14999 5.3498 2.78152 5.3498 4.79843H7.8498C7.8498 4.16436 8.36361 3.64999 8.9998 3.64999V1.14999ZM8.9998 18.65H9.05605V16.15H8.9998V18.65ZM17.9498 7.19999C17.9498 7.83512 17.4349 8.34999 16.7998 8.34999V10.85C18.8156 10.85 20.4498 9.21583 20.4498 7.19999H17.9498ZM16.7998 8.34999C16.1647 8.34999 15.6498 7.83512 15.6498 7.19999H13.1498C13.1498 9.21583 14.784 10.85 16.7998 10.85V8.34999ZM15.6498 7.19999C15.6498 6.56487 16.1647 6.04999 16.7998 6.04999V3.54999C14.784 3.54999 13.1498 5.18415 13.1498 7.19999H15.6498ZM16.7998 6.04999C17.4349 6.04999 17.9498 6.56487 17.9498 7.19999H20.4498C20.4498 5.18415 18.8156 3.54999 16.7998 3.54999V6.04999Z" fill="#7C9E85"/>
</svg>
