<?xml version="1.0" encoding="UTF-8" standalone="no"?>
<!-- Created with Inkscape (http://www.inkscape.org/) -->

<svg
   version="1.1"
   id="svg1"
   width="49.907917"
   height="69.650909"
   viewBox="0 0 49.907918 69.650907"
   xml:space="preserve"
   xmlns="http://www.w3.org/2000/svg"
   xmlns:svg="http://www.w3.org/2000/svg"><defs
     id="defs1" /><path
     style="display:inline;fill:#182018;fill-opacity:1"
     d="m 25.324417,69.636748 c -1.376286,0.0603 -2.506548,-0.0733 -3.176495,-0.37542 -0.916641,-0.41342 -1.037229,-0.61322 -1.016639,-1.6845 0.01285,-0.6685 0.129274,-1.95775 0.258724,-2.865 0.235363,-1.64955 0.235363,-1.64955 -0.773566,-0.88 -0.554911,0.42325 -1.400349,0.76955 -1.878751,0.76955 -0.478402,0 -1.795903,0.3232 -2.92778,0.71823 -1.698853,0.59291 -2.168217,0.64938 -2.689827,0.32363 -0.550209,-0.34361 -0.900071,-0.20712 -2.707174,1.05613 -1.1414176,0.79791 -2.7334896,1.67501 -3.5379366,1.94911 -0.804447,0.2741 -1.809528,0.4113 -2.233513,0.30489 -0.423984,-0.10641 -0.863156,-0.48421 -0.975937,-0.83955 -0.135701,-0.42756 0.170402,-1.32022 0.905033,-2.63926 0.610549,-1.09625 1.326114,-2.5146 1.590144,-3.15188 l 0.480056,-1.15871 -1.326417,0.73226 c -0.729529,0.40274 -1.945496,0.89562 -2.702149,1.09527 -0.756653,0.19966 -1.65665298,0.27386 -1.99999998,0.16489 -0.419589,-0.13318 -0.620226,-0.47959 -0.61194100195,-1.05657 C 0.00784842,61.569798 0.73198742,60.261978 1.8930004,58.681378 c 1.879297,-2.55846 1.879913,-2.56005 1.027673,-2.64775 -0.469013,-0.0483 -1.176751,-0.159 -1.572751,-0.24609 -0.57584698,-0.12665 -0.71999998,-0.37798 -0.71999998,-1.25531 0,-0.81971 0.40040698,-1.62597 1.58423798,-3.19003 0.871332,-1.15118 1.95639,-2.70681 2.411242,-3.45694 0.454851,-0.75014 1.073944,-1.71774 1.375761,-2.15024 0.301818,-0.4325 0.371735,-0.67784 0.155372,-0.5452 -0.216362,0.13264 -0.684362,0.0854 -1.04,-0.1049 -0.413294,-0.22119 -0.646613,-0.6705 -0.646613,-1.2452 0,-0.50641 0.292893,-1.16421 0.670553,-1.50599 0.670552,-0.60684 0.670552,-0.60684 -0.08,-0.78271 -0.475897,-0.11152 -0.790094,-0.45074 -0.858606,-0.92699 -0.08291,-0.57634 0.436467,-1.2993 2.231991,-3.10688 2.137112,-2.15147 2.267822,-2.35577 1.507235,-2.35577 -0.458044,0 -1.017813,-0.22292 -1.243929,-0.49537 -0.337058,-0.40613 -0.322173,-0.67996 0.08263,-1.52 0.271562,-0.56355 1.060798,-1.67263 1.753858,-2.46463 0.69306,-0.792 1.7251626,-2.124 2.2935626,-2.96 l 1.033453,-1.52 h -1.071373 c -0.589255,0 -1.2441726,-0.1728 -1.4553726,-0.384 -0.2112,-0.2112 -0.384,-0.69988 -0.384,-1.08596 0,-0.49546 0.800103,-1.34741 2.7197656,-2.896 1.495871,-1.20672 2.719871,-2.30204 2.72,-2.43404 1.29e-4,-0.132 -0.265448,-0.24 -0.59017,-0.24 -0.324722,0 -0.828722,-0.26334 -1.12,-0.5852 -0.29128,-0.32186 -0.529598,-0.81156 -0.529598,-1.08822 0,-0.27666 1.126371,-1.31402 2.503048,-2.30523 2.253005,-1.62218 2.489806,-1.89243 2.370495,-2.70535 -0.09951,-0.67803 0.06659,-1.05978 0.666459,-1.53163 0.768037,-0.60414 0.775383,-0.64326 0.189505,-1.0091496 -0.36184,-0.22597 -0.609507,-0.74204 -0.609507,-1.27003 0,-0.70868 0.562039,-1.40377 2.766192,-3.42104 1.809764,-1.65631 2.979519,-3.01391 3.383178,-3.92644 0.558955,-1.26361003 0.710891,-1.38553003 1.615373,-1.29626003 0.819459,0.0809 1.045188,0.28048 1.259536,1.11372003 0.177552,0.69019 1.23343,1.92768 3.298435,3.86575 2.361293,2.21616 3.037286,3.04012 3.037286,3.70213 0,0.495 -0.258874,1.0132 -0.618296,1.23766 -0.600445,0.3749796 -0.595826,0.4069496 0.16,1.1074296 0.428063,0.39672 0.778296,0.93568 0.778296,1.19769 0,0.26202 -0.156323,0.57301 -0.347385,0.6911 -0.214573,0.13261 -0.04762,0.4151 0.436694,0.73888 0.431244,0.2883 1.591471,1.08186 2.578283,1.76345 0.986811,0.6816 1.882196,1.51651 1.989743,1.85536 0.107547,0.33885 0.02153,0.82576 -0.191141,1.08201 -0.212674,0.25626 -0.822613,0.57889 -1.35542,0.71695 -0.968738,0.25103 -0.968738,0.25103 1.960244,2.62186 2.011645,1.62831 2.928982,2.58158 2.928982,3.0437 0,0.37007 -0.1728,0.84566 -0.384,1.05686 -0.2112,0.2112 -0.864266,0.384 -1.451259,0.384 -0.934429,0 -1.028315,0.0728 -0.754355,0.58467 0.172097,0.32156 1.333495,1.86956 2.580884,3.44 1.832128,2.3066 2.250756,3.03982 2.178355,3.81533 -0.07426,0.79545 -0.248418,0.97812 -1.016053,1.06574 -0.920689,0.10508 -0.91207,0.12018 1.391344,2.43908 1.54428,1.55465 2.279668,2.5312 2.203594,2.92622 -0.0628,0.32609 -0.437191,0.75392 -0.831983,0.95075 -0.716302,0.35711 -0.716463,0.35908 -0.07717,0.93763 0.352351,0.31888 0.640638,0.98439 0.640638,1.47892 0,0.5747 -0.233319,1.02401 -0.646613,1.2452 -0.355638,0.19033 -0.823638,0.23697 -1.04,0.10363 -0.216363,-0.13333 -0.141387,0.14801 0.166613,0.62521 0.308,0.47719 0.805276,1.26362 1.105057,1.74762 0.299781,0.484 1.379781,2.04489 2.4,3.46864 1.092732,1.52495 1.854943,2.92237 1.854943,3.40082 0,0.4467 -0.181826,0.96308 -0.404058,1.14751 -0.222231,0.18444 -0.951208,0.38207 -1.619947,0.43919 l -1.21589,0.10384 1.939948,2.64448 c 1.066971,1.45446 1.939947,2.91283 1.939947,3.24082 0,0.32798 -0.219399,0.77842 -0.487552,1.00097 -0.396028,0.32867 -0.877179,0.29916 -2.563082,-0.15719 -1.14154,-0.309 -2.443525,-0.85128 -2.893299,-1.20508 -0.817771,-0.64326 -0.817771,-0.64326 -0.300997,0.59637 0.284226,0.6818 0.949957,2.00824 1.479403,2.94765 0.569255,1.01005 0.922357,2.05378 0.864078,2.55411 -0.06603,0.56692 -0.362516,0.93698 -0.898551,1.12155 -0.572049,0.19697 -1.301491,0.0854 -2.56,-0.39158 -0.968,-0.36686 -2.515277,-1.24141 -3.438394,-1.94344 -1.481639,-1.12677 -1.770359,-1.2345 -2.462885,-0.91896 -0.618168,0.28165 -1.110382,0.23941 -2.321606,-0.19922 -0.845413,-0.30616 -2.113115,-0.62914 -2.817115,-0.71772 -0.704,-0.0886 -1.763678,-0.52498 -2.354839,-0.96977 -1.074839,-0.80871 -1.074839,-0.80871 -0.892906,0.11415 0.100063,0.50757 0.272141,1.71732 0.382397,2.68832 0.175696,1.54733 0.115078,1.84274 -0.490598,2.39087 -0.510188,0.46171 -1.250261,0.64991 -2.827559,0.71904 z"
     id="path5" /></svg>
