<svg width="1244" height="86" viewBox="0 0 1244 86" fill="none" xmlns="http://www.w3.org/2000/svg">
<g opacity="0.25">
<path d="M1243 1.35286C1243 1.35286 1117.59 80.3426 942 68.4875C818 60.1156 799.581 0.454277 644 1.35281C521.8 2.05855 468.472 65.7848 347.705 53.6603C270.376 45.8968 242.371 4.51057 164.274 1.35286C98.9076 -1.29008 1.00003 42.1622 1.00003 42.1622" stroke="black"/>
<ellipse opacity="0.75" cx="15" cy="13.3512" rx="15" ry="13.3512" transform="matrix(-1 0 0 1 1067 50.6859)" fill="#EDF1F6"/>
<path d="M385.97 58.5977C385.97 44.1765 399.031 32.3953 415.26 32.3953C431.489 32.3953 444.55 44.1765 444.55 58.5977C444.55 73.0188 431.489 84.8 415.26 84.8C399.031 84.8 385.97 73.0188 385.97 58.5977Z" stroke="black"/>
</g>
</svg>
