<?xml version="1.0" encoding="UTF-8" standalone="no"?>
<svg
   width="1244"
   height="86"
   viewBox="0 0 1244 86"
   fill="none"
   version="1.1"
   id="svg892"
   xmlns="http://www.w3.org/2000/svg"
   xmlns:svg="http://www.w3.org/2000/svg">
  <defs
     id="defs896" />
  <g
     opacity="0.25"
     id="g890"
     transform="matrix(1,0,0,-1,0,86.036803)">
    <path
       d="m 1243,1.35286 c 0,0 -125.41,78.98974 -301,67.13464 C 818,60.1156 799.581,0.454277 644,1.35281 521.8,2.05855 468.472,65.7848 347.705,53.6603 270.376,45.8968 242.371,4.51057 164.274,1.35286 98.9076,-1.29008 1.00003,42.1622 1.00003,42.1622"
       stroke="#000000"
       id="path884" />
    <ellipse
       opacity="0.75"
       cx="15"
       cy="13.3512"
       rx="15"
       ry="13.3512"
       transform="matrix(-1,0,0,1,1067,50.6859)"
       fill="#edf1f6"
       id="ellipse886" />
    <path
       d="m 385.97,58.5977 c 0,-14.4212 13.061,-26.2024 29.29,-26.2024 16.229,0 29.29,11.7812 29.29,26.2024 0,14.4211 -13.061,26.2023 -29.29,26.2023 -16.229,0 -29.29,-11.7812 -29.29,-26.2023 z"
       stroke="#000000"
       id="path888" />
  </g>
</svg>
