<svg width="1244" height="195" viewBox="0 0 1244 195" fill="none" xmlns="http://www.w3.org/2000/svg">
<g opacity="0.25">
<path d="M63.8785 123.725C63.8785 123.725 144.697 48.3775 286.13 100.702C427.563 153.027 519.702 63.7867 666.652 79.7723C786.927 92.8561 956.252 153.027 956.252 153.027" stroke="black"/>
<ellipse cx="1130.76" cy="129.417" rx="14.1086" ry="13.991" fill="#7C9E85"/>
<path d="M0.389465 97.7761C0.389465 97.7761 180.967 23.4437 302.92 24.4953C445.3 25.723 507.343 132.126 649.723 130.927C761.555 129.985 815.908 44.9586 926.428 61.1357C997.196 71.4941 1022.82 126.714 1094.3 130.927C1154.12 134.453 1243.72 97.7761 1243.72 97.7761" stroke="black"/>
<path d="M275.009 27.1076C275.009 41.7987 262.998 53.7152 248.173 53.7152C233.348 53.7152 221.337 41.7987 221.337 27.1076C221.337 12.4166 233.348 0.5 248.173 0.5C262.998 0.5 275.009 12.4166 275.009 27.1076Z" stroke="black"/>
</g>
</svg>
